<?xml version="1.0" standalone="no"?>
<!DOCTYPE svg PUBLIC "-//W3C//DTD SVG 20010904//EN"
 "http://www.w3.org/TR/2001/REC-SVG-20010904/DTD/svg10.dtd">
<svg version="1.0" xmlns="http://www.w3.org/2000/svg"
 width="128.000000pt" height="128.000000pt" viewBox="0 0 128.000000 128.000000"
 preserveAspectRatio="xMidYMid meet">
<metadata>
Created by potrace 1.11, written by Peter Selinger 2001-2013
</metadata>
<g transform="translate(0.000000,128.000000) scale(0.100000,-0.100000)"
fill="#000000" stroke="none">
<path d="M113 1205 c-26 -18 -41 -60 -36 -98 2 -16 -2 -36 -9 -45 -7 -9 -8
-13 -2 -9 14 8 13 -205 -1 -215 -7 -5 -7 -8 0 -8 6 0 11 -26 11 -59 0 -33 -4
-57 -9 -54 -5 3 -3 -5 4 -18 13 -26 13 -27 -4 -48 -9 -12 -9 -13 0 -7 8 4 13
1 13 -9 0 -10 -5 -13 -12 -9 -7 4 -8 3 -4 -5 5 -7 9 -36 11 -64 3 -39 1 -47
-6 -32 l-9 20 4 -20 c2 -11 7 -29 12 -39 6 -15 4 -17 -7 -11 -12 7 -12 6 -1
-7 10 -13 10 -17 0 -21 -10 -4 -10 -6 0 -6 6 -1 12 -9 12 -18 0 -15 -2 -16
-10 -3 -5 8 -10 10 -10 5 0 -6 5 -16 12 -23 9 -9 9 -12 0 -12 -7 0 -12 -5 -12
-11 0 -5 4 -7 10 -4 16 10 12 -7 -7 -27 -10 -11 -13 -19 -8 -18 22 5 27 -1 14
-17 -8 -9 -9 -14 -3 -10 7 4 10 -9 10 -37 -1 -24 -4 -42 -8 -40 -4 2 -10 0
-13 -6 -4 -6 -3 -10 2 -9 19 3 23 -2 14 -20 -7 -13 -6 -24 4 -37 8 -11 14 -23
15 -29 0 -5 -5 -3 -10 5 -7 10 -10 11 -10 2 0 -7 7 -15 15 -18 8 -4 12 -11 8
-18 -4 -6 2 -4 12 4 10 8 16 10 12 4 -4 -7 2 -11 18 -11 13 0 31 -8 40 -17 22
-22 28 -20 15 4 -9 16 -8 18 5 14 8 -4 15 -10 15 -15 0 -5 5 -9 11 -9 6 0 9 6
6 14 -4 9 0 13 11 11 9 -2 20 -4 25 -4 4 -1 7 -6 7 -12 0 -8 -6 -7 -17 2 -17
13 -17 12 -4 -4 14 -17 16 -17 27 -3 13 19 29 22 18 3 -5 -7 0 -6 11 3 11 9
16 10 11 2 -4 -6 -2 -12 3 -12 6 0 11 7 11 15 0 8 4 15 10 15 5 0 6 -7 3 -17
-4 -11 -3 -14 5 -9 7 4 12 2 12 -6 0 -9 3 -9 10 2 5 8 10 11 10 6 0 -5 7 -3
15 4 9 7 15 8 15 2 0 -5 7 -12 15 -16 13 -4 14 -2 5 14 -9 16 -8 18 5 14 8 -4
15 -10 15 -15 0 -5 5 -9 11 -9 6 0 9 6 6 14 -4 10 0 12 13 9 11 -3 18 -9 17
-13 -1 -4 3 -8 8 -9 6 -1 10 3 10 8 0 5 4 13 8 18 5 4 8 3 7 -2 -5 -23 1 -28
13 -11 13 17 14 17 30 1 12 -12 17 -13 18 -3 0 7 4 4 9 -7 8 -19 9 -19 9 3 1
12 5 22 11 22 5 0 6 -8 3 -17 -6 -16 -5 -16 10 -4 9 7 17 9 17 3 0 -5 7 -12
15 -16 13 -4 14 -2 5 14 -9 16 -8 18 5 14 8 -4 15 -10 15 -15 0 -5 5 -9 11 -9
6 0 9 6 6 14 -4 9 0 13 11 11 9 -2 20 -4 25 -4 4 -1 7 -6 7 -12 0 -8 -6 -7
-17 2 -17 13 -17 12 -4 -4 14 -17 16 -17 27 -3 13 19 29 22 18 4 -5 -8 0 -7
11 2 11 9 16 10 11 3 -4 -7 -2 -13 3 -13 6 0 11 7 11 15 0 8 4 15 10 15 5 0 6
-7 3 -17 -4 -11 -3 -14 5 -9 7 4 12 2 12 -6 0 -9 3 -9 10 2 5 8 10 11 10 6 0
-5 7 -3 15 4 9 7 15 8 15 2 0 -5 7 -12 15 -16 13 -4 14 -2 5 14 -9 16 -8 18 5
14 8 -4 15 -10 15 -15 0 -5 5 -9 11 -9 6 0 9 6 6 14 -4 10 0 12 13 9 11 -3 18
-8 17 -12 -1 -3 3 -7 8 -9 6 -1 10 2 10 7 0 5 4 13 8 18 5 4 8 3 7 -2 -5 -23
1 -28 13 -11 13 17 14 17 30 1 12 -12 17 -13 18 -3 0 7 4 4 9 -7 8 -19 9 -19
9 3 1 12 5 22 11 22 5 0 6 -8 3 -17 -6 -16 -5 -16 10 -4 11 9 17 10 17 2 0 -6
5 -11 11 -11 6 0 9 6 6 14 -4 10 0 12 14 9 11 -3 19 0 19 6 0 7 -5 9 -12 5 -7
-4 -8 -3 -4 5 6 9 11 9 24 -1 12 -10 14 -10 8 -1 -4 8 -2 13 6 13 9 0 9 3 -2
10 -11 7 -11 10 -2 10 7 0 11 4 8 8 -2 4 -1 14 4 22 5 9 5 19 -2 27 -7 9 -7
13 1 13 6 0 11 5 11 11 0 5 -5 7 -12 3 -8 -5 -9 -2 -4 12 13 33 15 53 5 59 -5
4 -9 18 -9 33 0 22 2 24 11 12 9 -12 10 -11 4 5 -12 35 -15 76 -5 70 6 -4 10
-2 10 4 0 5 -6 12 -12 14 -10 4 -9 8 2 16 10 7 11 11 3 11 -7 0 -13 9 -13 20
0 11 6 20 13 20 8 0 7 4 -3 10 -13 9 -13 11 0 20 10 6 11 10 3 10 -7 0 -13 5
-13 11 0 5 6 7 13 3 8 -5 8 -2 -2 9 -11 14 -11 17 0 17 11 0 11 2 0 9 -13 8
-13 12 0 27 9 11 9 15 1 10 -13 -8 -13 19 1 40 3 6 3 14 0 18 -12 11 -11 76 0
69 6 -4 7 -1 1 8 -13 20 -13 339 1 331 5 -3 4 2 -3 11 -8 9 -11 20 -9 24 10
17 -23 73 -48 83 -16 6 -219 10 -523 10 -424 0 -501 -2 -519 -15z m277 -1109
c0 -2 -7 -7 -16 -10 -8 -3 -12 -2 -9 4 6 10 25 14 25 6z m480 0 c0 -2 -7 -7
-16 -10 -8 -3 -12 -2 -9 4 6 10 25 14 25 6z"/>
<path d="M131 83 c-1 -17 16 -25 25 -12 4 7 3 9 -4 5 -5 -3 -13 0 -15 6 -4 9
-6 10 -6 1z"/>
<path d="M550 80 c0 -5 5 -10 11 -10 5 0 7 5 4 10 -3 6 -8 10 -11 10 -2 0 -4
-4 -4 -10z"/>
<path d="M1030 80 c0 -5 5 -10 11 -10 5 0 7 5 4 10 -3 6 -8 10 -11 10 -2 0 -4
-4 -4 -10z"/>
</g>
</svg>
